<svg width="21" height="20" viewBox="0 0 21 20" fill="none" xmlns="http://www.w3.org/2000/svg">
<g clip-path="url(#clip0_90_3)">
<path d="M17.1808 3.46299C15.9061 2.87809 14.5392 2.44716 13.1099 2.20035C13.0839 2.19558 13.0579 2.20749 13.0445 2.23129C12.8687 2.54397 12.6739 2.95189 12.5376 3.27251C11.0003 3.04237 9.47099 3.04237 7.96527 3.27251C7.82887 2.94476 7.62707 2.54397 7.45048 2.23129C7.43707 2.20828 7.41107 2.19638 7.38504 2.20035C5.95659 2.44637 4.58963 2.8773 3.31411 3.46299C3.30307 3.46775 3.29361 3.47569 3.28732 3.486C0.694493 7.35964 -0.0157919 11.1381 0.33265 14.8696C0.334227 14.8879 0.344475 14.9054 0.358665 14.9165C2.06934 16.1727 3.72642 16.9354 5.35273 17.4409C5.37876 17.4489 5.40634 17.4394 5.4229 17.4179C5.80761 16.8926 6.15054 16.3386 6.44456 15.7561C6.46192 15.722 6.44535 15.6815 6.40989 15.668C5.86594 15.4617 5.348 15.2101 4.84977 14.9244C4.81037 14.9014 4.80721 14.845 4.84346 14.818C4.94831 14.7395 5.05318 14.6577 5.1533 14.5752C5.17141 14.5601 5.19665 14.5569 5.21794 14.5665C8.49107 16.0608 12.0346 16.0608 15.2691 14.5665C15.2904 14.5561 15.3157 14.5593 15.3346 14.5744C15.4347 14.6569 15.5395 14.7395 15.6452 14.818C15.6814 14.845 15.6791 14.9014 15.6397 14.9244C15.1414 15.2156 14.6235 15.4617 14.0788 15.6672C14.0433 15.6807 14.0275 15.722 14.0449 15.7561C14.3452 16.3378 14.6881 16.8917 15.0657 17.4171C15.0815 17.4394 15.1099 17.4489 15.1359 17.4409C16.7701 16.9354 18.4272 16.1727 20.1379 14.9165C20.1528 14.9054 20.1623 14.8887 20.1639 14.8704C20.5809 10.5563 19.4654 6.80888 17.2068 3.48679C17.2013 3.47569 17.1919 3.46775 17.1808 3.46299ZM6.93335 12.5975C5.94792 12.5975 5.13594 11.6928 5.13594 10.5817C5.13594 9.47065 5.93217 8.56595 6.93335 8.56595C7.94239 8.56595 8.74651 9.47859 8.73073 10.5817C8.73073 11.6928 7.93451 12.5975 6.93335 12.5975ZM13.579 12.5975C12.5935 12.5975 11.7816 11.6928 11.7816 10.5817C11.7816 9.47065 12.5778 8.56595 13.579 8.56595C14.588 8.56595 15.3921 9.47859 15.3764 10.5817C15.3764 11.6928 14.588 12.5975 13.579 12.5975Z" fill="#5865F2"/>
</g>
<defs>
<clipPath id="clip0_90_3">
<rect width="20" height="20" fill="white" transform="translate(0.25)"/>
</clipPath>
</defs>
</svg>
